# xmcd
#
# Track frame offsets: 
#        150
#        21029
#        40493
#        68596
#        93807
#        111406
#        147801
#        175722
#        206044
#        219497
#        262787
#        289211
#        310811
#
# Disc length: 4440 seconds
#
# Revision: 2
# Processed by: cddbd v1.5.2PL0 Copyright (c) Steve Scherf et al.
# Submitted via: ExactAudioCopy v1.3
#
DISCID=b611560d
DTITLE=Hohlbein, Wolfgang - Anders 1 - Die tote Stadt
DYEAR=2007
DGENRE=Lesung
TTITLE0=43 "Bist du verrückt..."
TTITLE1=44 Er war in Katts Armen
TTITLE2=45 Katt!! Halb benommen
TTITLE3=46 Der Moment kam eher
TTITLE4=47 Sie standen unweit
TTITLE5=48 Die Nacht war endgültig
TTITLE6=49 Er hatte sich entweder
TTITLE7=50 Auf halbem Wege
TTITLE8=51 Er hatte sich wieder
TTITLE9=52 Das Wort Kälte
TTITLE10=53 Der stumme Blick
TTITLE11=54 Unmittelbar neben
TTITLE12=55 Ihr Atem beruhigte sich
EXTD=
EXTT0=
EXTT1=
EXTT2=
EXTT3=
EXTT4=
EXTT5=
EXTT6=
EXTT7=
EXTT8=
EXTT9=
EXTT10=
EXTT11=
EXTT12=
PLAYORDER=
